<svg id="Capa_1" data-name="Capa 1" xmlns="http://www.w3.org/2000/svg" viewBox="0 0 435.13 370.8"><defs><style>.cls-1{fill:none;}.cls-2,.cls-3,.cls-4{fill:#fff;}.cls-3,.cls-4{isolation:isolate;}.cls-3{font-size:70px;font-family:Fascinate-Regular, Fascinate;letter-spacing:0.13em;}.cls-4{font-size:30px;font-family:Boogaloo-Regular, Boogaloo;}</style></defs><title>logo-aztrek</title><path class="cls-1" d="M18.5,249.4,73,273.2a144.23,144.23,0,0,1-2.2-25.6H14.6l3.9,1.8Z" transform="translate(-0.6 -29.9)"/><path class="cls-1" d="M421.9,247.7H365.7a154.24,154.24,0,0,1-2.2,25.6Z" transform="translate(-0.6 -29.9)"/><path class="cls-1" d="M70.8,247.7A154.25,154.25,0,0,1,73,222.1L18.5,245.9h-.1l-3.9,1.7h0l56.3.1Z" transform="translate(-0.6 -29.9)"/><path class="cls-1" d="M421.9,247.7,418,246h0l-54.5-23.8a144.23,144.23,0,0,1,2.2,25.6h0l56.2-.1Z" transform="translate(-0.6 -29.9)"/><path class="cls-1" d="M342.8,102.7l6.5-2.5A196.83,196.83,0,0,0,229.9,50.7l2.8,6.4A188.37,188.37,0,0,1,342.8,102.7Z" transform="translate(-0.6 -29.9)"/><path class="cls-1" d="M70.7,116.6A196.83,196.83,0,0,0,21.2,236l6.4-2.8A189.39,189.39,0,0,1,73.2,123.1Z" transform="translate(-0.6 -29.9)"/><path class="cls-1" d="M282.9,93.7a4,4,0,0,0-5.2,2.2,4.15,4.15,0,0,0,0,3.1,4,4,0,0,0,2.2,2.2,4,4,0,0,0,5.2-2.2,4.15,4.15,0,0,0,0-3.1A4.29,4.29,0,0,0,282.9,93.7Z" transform="translate(-0.6 -29.9)"/><path class="cls-1" d="M236.3,65.4l17.1,39.1a144.7,144.7,0,0,1,41.1,17.1L334.3,106A181.15,181.15,0,0,0,236.3,65.4ZM292.4,102a12,12,0,0,1-11.1,7.4,12,12,0,0,1-11.1-7.4,12.21,12.21,0,0,1,0-9.2,12,12,0,0,1,11.1-7.4,12,12,0,0,1,11.1,7.4A12.21,12.21,0,0,1,292.4,102Z" transform="translate(-0.6 -29.9)"/><path class="cls-1" d="M344.3,171.4a147.63,147.63,0,0,1,17.1,41.1l39.1,17.1a180.4,180.4,0,0,0-40.6-98Zm20.3,3.5a12,12,0,0,1,4.5-.9,11.82,11.82,0,0,1,11.1,7.5,12.21,12.21,0,0,1,0,9.2,11.84,11.84,0,0,1-6.5,6.5,12,12,0,0,1-4.5.9h0a12.07,12.07,0,0,1-4.6-23.2Z" transform="translate(-0.6 -29.9)"/><path class="cls-1" d="M369.1,190a4,4,0,0,0,1.5-.3,4,4,0,0,0,2.2-2.2,4.15,4.15,0,0,0,0-3.1,4,4,0,0,0-7.4,3A4,4,0,0,0,369.1,190Z" transform="translate(-0.6 -29.9)"/><path class="cls-1" d="M363.2,123.1a188.74,188.74,0,0,1,45.6,110.1l6.4,2.8a196.83,196.83,0,0,0-49.5-119.4Z" transform="translate(-0.6 -29.9)"/><path class="cls-1" d="M102.2,106,142,121.6a147.63,147.63,0,0,1,41.1-17.1l17.1-39.1A180.52,180.52,0,0,0,102.2,106Zm65.4-4.6a12.17,12.17,0,0,1-6.5,6.5,12,12,0,0,1-4.5.9h0a12,12,0,0,1-4.5-23.1,12,12,0,0,1,4.5-.9,11.82,11.82,0,0,1,11.1,7.5A11.51,11.51,0,0,1,167.6,101.4Z" transform="translate(-0.6 -29.9)"/><path class="cls-1" d="M302.7,126.9a148.2,148.2,0,0,1,36.2,36.2l23.3-59.5Z" transform="translate(-0.6 -29.9)"/><path class="cls-1" d="M219.9,47.8,218.2,44l-25.6,58.5a144.23,144.23,0,0,1,25.6-2.2,154.25,154.25,0,0,1,25.6,2.2L220,48A.31.31,0,0,1,219.9,47.8Z" transform="translate(-0.6 -29.9)"/><path class="cls-1" d="M36,229.6l39.1-17.1a144.7,144.7,0,0,1,17.1-41.1L76.6,131.6A180.09,180.09,0,0,0,36,229.6Zm43-40.4a12,12,0,0,1-11.1,7.4,11.79,11.79,0,0,1-4.6-.9A12,12,0,0,1,68,172.6,12,12,0,0,1,79.1,180,12.2,12.2,0,0,1,79,189.2Z" transform="translate(-0.6 -29.9)"/><path class="cls-1" d="M203.8,57.1l2.8-6.4A196.83,196.83,0,0,0,87.2,100.2l6.5,2.5A188.1,188.1,0,0,1,203.8,57.1Z" transform="translate(-0.6 -29.9)"/><path class="cls-1" d="M69.5,180.9a4,4,0,0,0-5.2,2.2,3.93,3.93,0,0,0,2.1,5.2,4,4,0,0,0,5.2-2.2,4.15,4.15,0,0,0,0-3.1A3.92,3.92,0,0,0,69.5,180.9Z" transform="translate(-0.6 -29.9)"/><path class="cls-1" d="M78.1,105.2l-3.9-1.5,1.5,3.9v.1l21.7,55.5A148.2,148.2,0,0,1,133.6,127L78.1,105.3C78.2,105.2,78.2,105.2,78.1,105.2Z" transform="translate(-0.6 -29.9)"/><path class="cls-1" d="M156.6,92.8a4,4,0,0,0-1.5.3,4,4,0,0,0-2.2,2.2,4.15,4.15,0,0,0,0,3.1,4,4,0,0,0,5.2,2.2,4,4,0,0,0,2.2-2.2,4.05,4.05,0,0,0-3.7-5.6Z" transform="translate(-0.6 -29.9)"/><path class="cls-2" d="M433.5,244l-10.1-4.4A204.71,204.71,0,0,0,369,108.3L373,98a4,4,0,0,0-5.2-5.2l-10.2,4A204.71,204.71,0,0,0,226.3,42.4l-4.4-10.1a3.93,3.93,0,0,0-3.7-2.4,4,4,0,0,0-3.7,2.4l-4.4,10.1A204.71,204.71,0,0,0,78.8,96.8l-10.3-4A4,4,0,0,0,63.3,98l4,10.2A205.91,205.91,0,0,0,13,239.6L3,244a3.93,3.93,0,0,0-2.4,3.7h14l3.9-1.7h.1L73,222.1a144.23,144.23,0,0,0-2.2,25.6h6.5a141.4,141.4,0,1,1,282.8,0h5.4a154.24,154.24,0,0,0-2.2-25.6l54.5,23.8h0l3.9,1.7h14A3.58,3.58,0,0,0,433.5,244ZM349.3,100.1l-6.5,2.5A189,189,0,0,0,232.7,57l-2.8-6.4A197.07,197.07,0,0,1,349.3,100.1ZM206.6,50.7l-2.8,6.4A189.39,189.39,0,0,0,93.7,102.7l-6.5-2.5A195.41,195.41,0,0,1,206.6,50.7ZM21.2,236A196.83,196.83,0,0,1,70.7,116.6l2.5,6.5A188.74,188.74,0,0,0,27.6,233.2Zm53.9-23.5L36,229.6a181.15,181.15,0,0,1,40.6-98l15.6,39.8A144.7,144.7,0,0,0,75.1,212.5Zm22.4-49.3L75.8,107.7v-.1l-1.5-3.9,3.9,1.5h.1l55.5,21.7A149,149,0,0,0,97.5,163.2Zm44.4-41.6L102.2,106a180.84,180.84,0,0,1,98-40.6L183,104.5A145.91,145.91,0,0,0,141.9,121.6Zm76.3-21.4a154.25,154.25,0,0,0-25.6,2.2L218.2,44l1.7,3.8c0,.1.1.1.1.2l23.8,54.5A143.39,143.39,0,0,0,218.2,100.2Zm35.2,4.3L236.3,65.4a181.15,181.15,0,0,1,98,40.6l-39.8,15.6A144.7,144.7,0,0,0,253.4,104.5Zm49.3,22.4,59.5-23.3L339,163.2A149,149,0,0,0,302.7,126.9Zm58.7,85.6a144.7,144.7,0,0,0-17.1-41.1l15.6-39.8a180.84,180.84,0,0,1,40.6,98Zm47.4,20.7a188.74,188.74,0,0,0-45.6-110.1l2.5-6.5A196.83,196.83,0,0,1,415.2,236Z" transform="translate(-0.6 -29.9)"/><path class="cls-2" d="M286,86.3a12.07,12.07,0,0,0-15.7,6.5,11.75,11.75,0,0,0,0,9.2,11.54,11.54,0,0,0,6.5,6.5,12.07,12.07,0,0,0,15.7-6.5,11.75,11.75,0,0,0,0-9.2A12.51,12.51,0,0,0,286,86.3Zm-1,12.6a4,4,0,0,1-5.2,2.2,4,4,0,0,1-2.2-2.2,4.15,4.15,0,0,1,0-3.1,4,4,0,0,1,5.2-2.2,4,4,0,0,1,2.2,2.2A4.15,4.15,0,0,1,285,98.9Z" transform="translate(-0.6 -29.9)"/><path class="cls-2" d="M358,190.5a12.07,12.07,0,0,0,11.1,7.5h0a11.3,11.3,0,0,0,4.5-.9,11.54,11.54,0,0,0,6.5-6.5,11.75,11.75,0,0,0,0-9.2,12.07,12.07,0,0,0-11.1-7.5,11.3,11.3,0,0,0-4.5.9A12.11,12.11,0,0,0,358,190.5Zm9.6-8.2a4,4,0,0,1,5.2,2.2,4.15,4.15,0,0,1,0,3.1,4,4,0,0,1-2.2,2.2,4,4,0,0,1-5.2-2.2A4.14,4.14,0,0,1,367.6,182.3Z" transform="translate(-0.6 -29.9)"/><path class="cls-2" d="M72.6,173.5A12.07,12.07,0,0,0,56.9,180a12,12,0,0,0,6.4,15.7A12.07,12.07,0,0,0,79,189.2a11.75,11.75,0,0,0,0-9.2A12.32,12.32,0,0,0,72.6,173.5Zm-1,12.6a4,4,0,0,1-5.2,2.2,4,4,0,0,1-2.1-5.2,4,4,0,0,1,5.2-2.2,4,4,0,0,1,2.2,2.2A4.42,4.42,0,0,1,71.6,186.1Z" transform="translate(-0.6 -29.9)"/><path class="cls-2" d="M156.6,84.8a11.3,11.3,0,0,0-4.5.9,12,12,0,0,0,4.5,23.1h0a11.3,11.3,0,0,0,4.5-.9,11.54,11.54,0,0,0,6.5-6.5,12,12,0,0,0-11-16.6Zm3.6,13.5a4,4,0,0,1-2.2,2.2,4,4,0,0,1-5.2-2.2,4.15,4.15,0,0,1,0-3.1A4,4,0,0,1,155,93a4,4,0,0,1,5.2,2.2A3.39,3.39,0,0,1,160.2,98.3Z" transform="translate(-0.6 -29.9)"/><rect class="cls-1" x="45.1" y="228.6" width="344" height="63.2"/><text class="cls-3" transform="translate(58.94 284.57)">AZTREK</text><polygon class="cls-1" points="317.3 363.5 310.2 370.8 310.2 370.8 317.3 363.5 317.3 363.5"/><rect class="cls-1" x="30" y="295.9" width="375.3" height="46.3"/><text class="cls-4" transform="translate(52.05 317.96)">Un nouveau monde à chaque pas </text><path d="M168,247.7l40-22.9" transform="translate(-0.6 -29.9)"/><path class="cls-2" d="M206,186.9c-11.5,12.2-22.8,46.2-22.8,46.2s34-11.3,46.2-22.8a11.41,11.41,0,0,0,1.1-1.1C242,197,253.3,163,253.3,163s-34,11.3-46.2,22.8A5.73,5.73,0,0,0,206,186.9ZM226.5,198a8.3,8.3,0,1,1-8.3-8.3A8.28,8.28,0,0,1,226.5,198Z" transform="translate(-0.6 -29.9)"/></svg>